<?xml version="1.0" encoding="utf-8"?>
<!-- Generator: Adobe Illustrator 22.1.0, SVG Export Plug-In . SVG Version: 6.00 Build 0)  -->
<svg version="1.1" id="Layer_1" xmlns="http://www.w3.org/2000/svg" xmlns:xlink="http://www.w3.org/1999/xlink" x="0px" y="0px"
	 viewBox="0 0 342 224" style="enable-background:new 0 0 342 224;" xml:space="preserve">
<style type="text/css">
	.st0{fill:#E5E5E5;stroke:#FFFFFF;stroke-miterlimit:10;}
</style>
<g id="nKxaUg.tif_1_">
	<g>
		<path class="st0" d="M6,144.3c0.4-0.8,0.3-1.7,0.4-2.5c1.6-10.1,6.7-18.1,14.6-24.4c7.5-5.9,16.1-9.1,25.7-9.7
			c2.6-0.2,2.6-0.2,2.6-2.7c0-12.2,4.2-22.8,12.6-31.7c9.4-10.1,21.2-15.6,34.9-17.4c0.1,0,0.2,0,0.3,0c2.9-0.4,2.8-0.4,3.2-3.3
			c1.2-8.5,4.5-16,9.8-22.7c10.1-12.6,23.5-19.8,39-23.5c4.3-1,8.6-1.7,13.1-1.9c0.3,0,0.6-0.1,0.9-0.2c3.1,0,6.2,0,9.3,0
			c2.2,0.3,4.5,0.5,6.7,0.8c13.5,1.8,25.8,6.6,36.6,15c6.5,5.1,11.7,11.3,15.3,18.7c0.4,0.9,0.9,1.3,1.9,1.4
			c10.2,1.1,19.7,4.4,28.1,10.4c2.5,1.8,4.8,3.7,6.9,5.9c0.9,0.9,1.8,1.1,3,0.9c4-0.7,8-1.1,12-0.9c12.9,0.6,24.7,4.4,34.9,12.6
			c9.3,7.5,15.5,16.9,17.6,28.8c1.9,11-0.2,21.3-6,30.9c-4.2,7-10,12.5-16.9,16.8c-0.6,0.4-0.9,0.8-0.9,1.6
			c0.3,10.2-2.5,19.5-8.5,27.7c-9.4,12.9-22.4,20-38,22.2c-11.8,1.7-23.2,0.1-34-5c-1.2-0.5-1.6-0.3-2.2,0.8
			c-5.7,10.8-14.7,16.7-26.9,17.7c-8.8,0.7-16.6-1.9-23.5-7.5c-0.8-0.6-1.2-0.3-1.7,0.2c-3.7,3.6-7.8,6.7-12.3,9.2
			c-6.4,3.5-13.2,5.8-20.4,6.8c-9.8,1.3-19.3,0.5-28.6-2.8c-7.2-2.5-13.6-6.3-19.3-11.4c-2.1-1.9-4.1-4-5.8-6.3
			c-0.8-1-1.3-1-2.2-0.2c-3.8,3.3-8.1,5.4-13.1,6c-9.1,1.1-16.7-1.9-22.7-8.7c-2.2-2.4-3.8-5.3-4.8-8.4c-0.3-0.8-0.7-1-1.5-1.1
			c-11.6-1.1-21.6-5.5-29.7-14c-5.7-6.1-9.2-13.2-10.1-21.6c0-0.3-0.2-0.7-0.2-1C6,147.9,6,146.1,6,144.3z"/>
	</g>
</g>
</svg>
