<?xml version="1.0" encoding="utf-8"?>
<!-- Generator: Adobe Illustrator 22.1.0, SVG Export Plug-In . SVG Version: 6.00 Build 0)  -->
<svg version="1.1" id="Layer_1" xmlns="http://www.w3.org/2000/svg" xmlns:xlink="http://www.w3.org/1999/xlink" x="0px" y="0px"
	 viewBox="0 0 51.6 65.8" style="enable-background:new 0 0 51.6 65.8;" xml:space="preserve">
<style type="text/css">
	.st0{fill:#79CBF2;}
	.st1{fill:#BEE7FB;}
</style>
<g>
	<path class="st0" d="M26.1,3.5c0,0-22.3,19.9-21.8,36.3c0,0,0.3,20.7,21.8,22.3c21.5-1.6,21.8-22.3,21.8-22.3
		C48.4,23.4,26.1,3.5,26.1,3.5z"/>
	<path class="st1" d="M7.5,42.5c0.2,0.6,0.8,1.1,1.5,1.1c1.2,0,3.4-0.7,4.7-5.5c0,0,4.2-15.6,9.9-23.7c0.4-0.6,0.7-1.2,0.9-1.9
		c0.1-0.6,0.1-1.1-0.4-0.7c0,0-13.9,11.3-16,21.7C8.1,33.4,6.6,39.8,7.5,42.5z"/>
</g>
</svg>
