<?xml version="1.0" encoding="utf-8"?>
<!-- Generator: Adobe Illustrator 22.1.0, SVG Export Plug-In . SVG Version: 6.00 Build 0)  -->
<svg version="1.1" id="Layer_1" xmlns="http://www.w3.org/2000/svg" xmlns:xlink="http://www.w3.org/1999/xlink" x="0px" y="0px"
	 viewBox="0 0 246.9 170.4" style="enable-background:new 0 0 246.9 170.4;" xml:space="preserve">
<style type="text/css">
	.st0{fill:#DB2226;}
	.st1{fill:#F26337;}
	.st2{fill:#F9EC25;}
	.st3{fill:#2BB34B;}
	.st4{fill:#4893CF;}
	.st5{fill:#2A2B76;}
	.st6{fill:#3C308D;}
</style>
<g id="_x39_VfLeg.tif_1_">
	<g>
		<path class="st0" d="M4.8,98.6c2.7-8.7,6.1-17,10.3-24.9c9.6-18.1,22.4-33.2,38.3-45.2c14.4-10.9,30.2-18.3,47.2-22.1
			c8.9-2,17.9-2.9,26.9-2.8c6.8,0.1,13.5,0.8,20.1,2.1c6.2,1.2,12.2,2.9,18.1,5.2c11.3,4.3,21.8,10.3,31.3,18.1
			c11.5,9.4,21,20.7,28.6,33.9c9.6,16.8,15.2,35.1,17,55.1c0.8,9,0.7,18-0.3,27.1c-0.8,7.3-2.1,14.5-4,21.6c-2-0.5-4-1.1-6-1.6
			c8.4-33.4,5.5-65.1-9.9-94.4c-15.4-29.4-38.6-48.4-69.2-56.5C122.5,5.9,92.9,10.8,65,28.5c-28,17.8-46.4,43.9-55.7,77.2
			c-1.9-0.5-3.8-1-5.7-1.5c-0.3-0.1-0.4-0.2-0.3-0.5c0.2-0.5,0.3-1,0.4-1.6C4.2,101,4.5,99.8,4.8,98.6z"/>
		<path class="st1" d="M9.3,105.7C18.6,72.4,36.9,46.4,65,28.5c27.9-17.8,57.5-22.6,88.1-14.5c30.6,8.1,53.8,27.1,69.2,56.5
			c15.4,29.4,18.3,61,9.9,94.4c-2-0.5-4-1.1-6-1.6C243,99.9,209.5,36.1,151.5,20.6C93.1,5,32.2,43.8,15.3,107.3
			C13.3,106.8,11.3,106.3,9.3,105.7z"/>
		<path class="st2" d="M15.3,107.3C32.2,43.8,93.1,5,151.5,20.6c58,15.5,91.5,79.3,74.7,142.8c-2-0.5-4-1.1-6-1.6
			c15.9-59.8-15.7-119.8-70-134.6c-55.3-15.1-113,21.9-128.8,81.7C19.3,108.4,17.3,107.9,15.3,107.3z"/>
		<path class="st3" d="M21.3,108.9c15.8-59.8,73.5-96.8,128.8-81.7c54.2,14.8,85.9,74.7,70,134.6c-2-0.5-4-1.1-6-1.6
			c14.9-56.3-14.8-112.8-66.3-126.5C96.2,19.9,42.4,54.3,27.4,110.5C25.3,110,23.3,109.5,21.3,108.9z"/>
		<path class="st4" d="M27.4,110.5c15-56.3,68.9-90.6,120.5-76.9c51.5,13.7,81.1,70.2,66.3,126.5c-2-0.5-4-1.1-6-1.6
			C222.1,106,194.2,53,146,40.2c-48.2-12.8-98.7,19.4-112.7,72C31.4,111.6,29.4,111.1,27.4,110.5z"/>
		<path class="st5" d="M33.4,112.1c14-52.6,64.4-84.8,112.7-72c48.2,12.8,76.1,65.8,62.1,118.4c-2-0.5-4-1.1-6-1.6
			c13-49.1-12.9-97.9-57-110C99.5,34.4,52.4,64.9,39.4,113.7C37.4,113.2,35.4,112.7,33.4,112.1z"/>
		<path class="st6" d="M39.4,113.7C52.4,64.9,99.5,34.4,145,47c44.1,12.1,70,60.9,57,110c-2-0.5-4-1.1-6-1.6
			c4.7-18,4.2-35.5-1.8-52.5c-6.1-17.3-16.5-30.8-31.1-40.4c-7-4.6-14.6-7.8-22.7-9.7c-15.7-3.6-31.2-2.2-46.4,4.4
			c-16.9,7.4-30.3,19.6-39.9,36.5c-3.9,6.8-6.8,14-8.8,21.6C43.4,114.8,41.4,114.3,39.4,113.7z"/>
	</g>
</g>
</svg>
